<svg width="50" height="50" viewBox="0 0 50 50" fill="none" xmlns="http://www.w3.org/2000/svg">
<path d="M23.5012 25.5665C23.5012 19.0768 18.2403 13.8159 11.7506 13.8159C5.26092 13.8159 0 19.0768 0 25.5665V38.2493C0 44.739 5.26092 49.9999 11.7506 49.9999C18.2403 49.9999 23.5012 44.739 23.5012 38.2493V25.5665Z" fill="#11478C"/>
<path d="M34.5012 18.7506C34.5012 12.2609 29.2403 7 22.7506 7C16.2609 7 11 12.2609 11 18.7506V31.4334C11 37.9231 16.2609 43.184 22.7506 43.184C29.2403 43.184 34.5012 37.9231 34.5012 31.4334V18.7506Z" fill="#0C77B1"/>
<path d="M46.5012 11.7506C46.5012 5.26092 41.2403 0 34.7506 0C28.2609 0 23 5.26092 23 11.7506V24.4334C23 30.9231 28.2609 36.184 34.7506 36.184C41.2403 36.184 46.5012 30.9231 46.5012 24.4334V11.7506Z" fill="#07A0D0"/>
</svg>
